<?xml version="1.0" encoding="UTF-8" standalone="no"?>
<svg
   xmlns:dc="http://purl.org/dc/elements/1.1/"
   xmlns:cc="http://creativecommons.org/ns#"
   xmlns:rdf="http://www.w3.org/1999/02/22-rdf-syntax-ns#"
   xmlns:svg="http://www.w3.org/2000/svg"
   xmlns="http://www.w3.org/2000/svg"
   xmlns:sodipodi="http://sodipodi.sourceforge.net/DTD/sodipodi-0.dtd"
   xmlns:inkscape="http://www.inkscape.org/namespaces/inkscape"
   version="1.1"
   x="0px"
   y="0px"
   viewBox="20.875 0 24.600001 24.901142"
   enable-background="new 20.875 0 78.375 79.25"
   xml:space="preserve"
   id="svg2"
   inkscape:version="0.91 r13725"
   sodipodi:docname="gps.svg"
   width="24.6"
   height="24.901142"
   style="fill:#000000"><metadata
     id="metadata44"><rdf:RDF><cc:Work
         rdf:about=""><dc:format>image/svg+xml</dc:format><dc:type
           rdf:resource="http://purl.org/dc/dcmitype/StillImage" /><dc:title /></cc:Work></rdf:RDF></metadata><defs
     id="defs42" /><sodipodi:namedview
     pagecolor="#ffffff"
     bordercolor="#666666"
     borderopacity="1"
     objecttolerance="10"
     gridtolerance="10"
     guidetolerance="10"
     inkscape:pageopacity="0"
     inkscape:pageshadow="2"
     inkscape:window-width="987"
     inkscape:window-height="630"
     id="namedview40"
     showgrid="false"
     fit-margin-top="0"
     fit-margin-left="0"
     fit-margin-right="0"
     fit-margin-bottom="0"
     inkscape:showpageshadow="false"
     showborder="true"
     inkscape:zoom="8.422824"
     inkscape:cx="13.438814"
     inkscape:cy="14.049128"
     inkscape:window-x="533"
     inkscape:window-y="159"
     inkscape:window-maximized="0"
     inkscape:current-layer="svg2" /><g
     id="g4"
     transform="matrix(0.32173265,0,0,0.32173265,13.728996,-0.22939538)"
     style="fill:#ffffff"><g
       id="g6"
       style="fill:#ffffff"><polygon
         points="64.325,22.022 54.674,31.672 48.946,24.972 58.598,15.321 "
         id="polygon8"
         style="fill:#ffffff" /></g><polygon
       points="57.957,14.718 48.308,24.368 42.579,17.667 52.229,8.017 "
       id="polygon10"
       style="fill:#ffffff" /><g
       id="g12"
       style="fill:#ffffff"><polygon
         points="51.59,7.415 41.941,17.064 36.212,10.364 45.862,0.713 "
         id="polygon14"
         style="fill:#ffffff" /></g></g><g
     id="g16"
     transform="matrix(0.32173265,0,0,0.32173265,13.728996,-0.22939538)"
     style="fill:#ffffff"><polygon
       points="85.723,46.572 80.261,40.134 70.61,49.783 76.074,56.221 "
       id="polygon18"
       style="fill:#ffffff" /><polygon
       points="98.672,61.396 93.209,54.957 83.559,64.606 89.023,71.043 "
       id="polygon20"
       style="fill:#ffffff" /><polygon
       points="91.867,53.652 86.404,47.215 76.754,56.863 82.219,63.303 "
       id="polygon22"
       style="fill:#ffffff" /><polygon
       points="68.144,20.51 68.144,20.51 60.221,28.433 52.453,36.201 52.454,36.201 52.299,36.355 57.512,44.367 66.846,50.902 82.535,35.212 82.846,34.901 77.634,26.891 68.301,20.354 "
       id="polygon24"
       style="fill:#ffffff" /></g><g
     id="g26"
     transform="matrix(0.32173265,0,0,0.32173265,13.728996,-0.22939538)"
     style="fill:#ffffff"><path
       d="m 51.772,50.353 c -3.461,-3.225 -5.196,-7.452 -5.21,-11.687 l -4.455,-10e-4 c 0.015,5.297 2.183,10.591 6.513,14.621 4.332,4.031 10.015,6.051 15.703,6.064 l 0,-4.146 C 59.777,55.19 55.234,53.574 51.772,50.353 Z"
       id="path28"
       inkscape:connector-curvature="0"
       style="fill:#ffffff" /><path
       d="M 44.682,56.953 C 39.265,51.91 36.554,45.288 36.54,38.666 l -4.454,-0.002 c 0.014,7.686 3.161,15.37 9.446,21.225 6.285,5.85 14.537,8.782 22.793,8.793 l 0,-4.147 C 57.209,64.523 50.099,61.995 44.682,56.953 Z"
       id="path30"
       inkscape:connector-curvature="0"
       style="fill:#ffffff" /></g><line
     stroke-miterlimit="10"
     x1="35.435333"
     y1="7.9345708"
     x2="31.950647"
     y2="11.312763"
     id="line32"
     style="fill:#ffffff;stroke:#808080;stroke-width:0.64346528;stroke-miterlimit:10;stroke-opacity:1" /><line
     stroke-miterlimit="10"
     x1="38.100246"
     y1="8.6182528"
     x2="33.173874"
     y2="13.444242"
     id="line34"
     style="fill:#ffffff;stroke:#808080;stroke-width:0.64346528;stroke-miterlimit:10" /><line
     stroke-miterlimit="10"
     x1="38.920017"
     y1="11.233294"
     x2="35.435333"
     y2="14.611487"
     id="line36"
     style="fill:#ffffff;stroke:#808080;stroke-width:0.64346528;stroke-miterlimit:10" /><path
     d="M 25.793971,20.137247 C 23.527042,17.997081 22.05962,15.021376 22.053828,12.210076 L 20.875,12.159564 c 0.0058,3.262369 1.322965,6.523773 3.953451,9.009157 2.630164,2.482811 6.084286,3.727917 9.539695,3.732421 l 0,-1.281783 c -2.978279,-0.0048 -6.306925,-1.341947 -8.574175,-3.482112 z"
     id="path38"
     inkscape:connector-curvature="0"
     style="fill:#ffffff" /></svg>