<svg
    t="1693741520257"
    class="icon"
    viewBox="0 0 1024 1024"
    version="1.1"
    xmlns="http://www.w3.org/2000/svg"
    p-id="4405"
    width="512"
    height="512">
    <path
        d="M728 362a56 56 0 1 0-56-56 56 56 0 0 0 56 56zM306 484h412a178 178 0 0 0 0-356H306a178 178 0 0 0 0 356z m422-290a112 112 0 1 1-112 112 111.9 111.9 0 0 1 112-112zM296 664a56 56 0 1 0 56 56 56 56 0 0 0-56-56z m422-124H306a178 178 0 0 0 0 356h412a178 178 0 0 0 0-356zM296 832a112 112 0 1 1 112-112 111.9 111.9 0 0 1-112 112z"
        p-id="4406"
></path>
</svg>
