<?xml version="1.0" standalone="no"?><!DOCTYPE svg PUBLIC "-//W3C//DTD SVG 1.1//EN" "http://www.w3.org/Graphics/SVG/1.1/DTD/svg11.dtd"><svg t="1713853688828" class="icon" viewBox="0 0 1024 1024" version="1.1" xmlns="http://www.w3.org/2000/svg" p-id="4233" xmlns:xlink="http://www.w3.org/1999/xlink" width="200" height="200"><path d="M807.6 167.9c-5.8-5.1-13-7.5-20.1-7.4-1.6-0.2-3.3-0.5-5-0.5H133c-16 0-29 13-29 29.1 0 7.9 3.2 15 8.2 20.3l226.4 254.4v289.9c0 13.3 9 24.6 21.2 28l180.8 79.8c3.8 1.7 7.8 2.4 11.8 2.4 11.2 0 21.8-6.4 26.7-17.3 1.9-4.4 2.7-8.9 2.4-13.2V465.7L810.1 209c10.6-12 9.5-30.4-2.5-41.1z" p-id="4234" fill="#707070"></path><path d="M646.8 532.1c0 16.1 13 29.1 29.1 29.1h215c16.1 0 29.1-13 29.1-29.1S907 503 890.9 503h-215c-16 0-29.1 12.9-29.1 29.1zM890.9 639.9h-215c-16.1 0-29.1 13-29.1 29.1s13 29.1 29.1 29.1h215c16.1 0 29.1-13 29.1-29.1 0-16-13-29.1-29.1-29.1z m0 137.1h-215c-16.1 0-29.1 13-29.1 29.1s13 29.1 29.1 29.1h215c16.1 0 29.1-13 29.1-29.1S907 777 890.9 777z" p-id="4235" fill="#707070"></path></svg>