<svg
    t="1676278239117"
    class="icon"
    viewBox="0 0 1024 1024"
    version="1.1"
    xmlns="http://www.w3.org/2000/svg"
    p-id="860"
    width="200"
    height="200">
    <path
        d="M524.96 120.64a46.4 46.4 0 0 0-8 62.72c16 28 76.64 24.64 73.28-24S544 102.4 524.96 120.64z m46.88 37.28a21.76 21.76 0 0 1-40.16 13.12 25.44 25.44 0 0 1 4.32-34.24c10.4-9.92 33.92-5.44 35.84 21.12zM96.96 408c3.36 0 16 4.64 23.36-1.28s2.72-5.92 4-24.64a423.84 423.84 0 0 1 29.28-106.08c16-33.92 78.72-108.64 166.08-149.28S510.4 84.64 604.96 108 798.4 213.92 848 294.56s7.36 238.72-20.64 302.08S672 733.92 576 737.92a263.36 263.36 0 0 1-209.28-96c-32-43.36-61.28-151.36-21.28-224a159.04 159.04 0 0 1 138.08-80c28-1.92 50.72 24.64 56.64 26.72a18.72 18.72 0 0 0 18.08-22.72c-3.36-14.72-57.92-57.28-171.36-3.36S288 502.56 294.4 551.36s33.28 179.36 200 210.08a349.92 349.92 0 0 0 320-103.36c36-41.28 89.28-112 87.36-249.92S856.32 228 745.6 140s-288-93.92-384-60.64S144 197.28 115.04 277.28 93.6 408 96.96 408z m46.08 137.92C136.32 517.28 112 504.16 89.6 515.36S70.4 552.64 84.32 576s65.28-1.44 58.72-30.08zM96 562.4c-7.2-12-9.12-25.28 2.72-31.04a19.2 19.2 0 0 1 27.2 16c3.52 14.4-22.72 27.04-29.92 15.04z m493.6-62.4c12.64-91.36-73.44-94.4-108.64-85.92-86.72 20.64-76.64 105.28-43.36 137.92s139.36 40 152-52z m-100.64 40.64a48 48 0 0 1-38.72-43.36 49.28 49.28 0 0 1 36-58.72c14.88-5.92 54.08-1.92 67.36 16s6.08 52.64 6.08 52.64-8-13.92-9.92-13.92-10.72 2.72-9.92 5.28 10.08 21.92 8.64 25.28-9.92 13.28-12 10.72-17.28-44.64-21.28-45.28-12.64 0-12 3.36 22.72 45.92 19.36 49.28-12 6.08-13.92 1.28-16-42.72-17.92-43.36-14.72 3.36-13.28 8 14.24 32.16 11.52 32.8z m93.44 261.92c-22.72 13.28-29.92 40-17.92 72.64s82.72 38.72 92.64-12a53.76 53.76 0 0 0-74.72-60.64z m57.6 55.52c-6.4 32-51.68 28.64-59.36 7.68s-3.04-38.08 11.52-46.56A34.56 34.56 0 0 1 640 858.08zM392.96 568c-23.36 11.36-19.36 37.28-5.28 60.64s65.28-1.28 58.72-29.92-30.4-41.92-53.44-30.72z m6.4 47.2c-7.2-12-9.12-25.28 2.72-31.04a19.2 19.2 0 0 1 27.2 16c2.72 14.24-22.72 26.88-29.28 14.88z m393.6-288c0-29.92-32-50.4-50.72-36.64a35.84 35.84 0 0 0-8.64 52c14.08 19.36 60 14.72 59.36-15.2z m-42.08-21.76c9.12-6.88 24.96 3.36 25.28 18.24s-22.56 17.28-29.6 7.68a17.92 17.92 0 0 1 4.48-25.92z m-505.76 147.52a27.2 27.2 0 0 0-6.56 39.52c10.72 14.72 45.6 11.2 45.12-11.68s-24.64-38.24-38.56-27.84z m25.76 25.28c0 11.36-17.12 13.12-22.56 5.76a13.6 13.6 0 0 1 3.36-20c7.04-4.96 18.88 2.88 19.2 14.24z m631.52 122.4c-20 8.64-24.64 40.64-14.72 62.08s62.72 16 64-23.36-31.36-46.56-49.28-38.72z m-1.6 50.24a26.56 26.56 0 0 1 8.16-34.24c9.92-4.32 27.2 0 26.88 21.28s-29.6 24.64-35.04 12.96z m32-485.6c-3.36-48-46.4-56.8-65.28-38.72a46.4 46.4 0 0 0-8 62.72c15.52 28 76.16 24.64 72.8-24z m-54.24-22.4c10.4-9.92 33.92-5.44 35.68 21.12a21.76 21.76 0 0 1-40.16 13.12 25.44 25.44 0 0 1 4-34.24zM149.6 807.36C127.04 820.64 119.68 848 131.68 880s82.72 38.72 92.64-12a53.76 53.76 0 0 0-74.72-60.64z m57.28 55.52c-6.4 32-51.68 28.64-59.36 7.68S144 832 159.04 823.84a34.4 34.4 0 0 1 47.84 38.88z m692.16-106.24c-5.92 0-10.72 11.36-16 19.36s-60 86.72-121.92 121.28-176 46.08-284.64 18.72-213.92-152.64-256-278.72 10.56-204 37.12-253.28 89.28-115.36 162.08-121.92 188.32-12.16 241.28 67.84A207.04 207.04 0 0 1 672 556.64c-37.92 72.64-136.16 60.16-140 64s-3.36 26.72 4 28.64a256 256 0 0 0 115.36-27.36c41.28-24 92-86.72 74.08-216.64s-128-173.92-228-176-198.72 25.28-265.92 132a329.92 329.92 0 0 0-41.12 282.72c23.36 84 83.36 216.64 213.28 282.08s272 32 363.36 0 155.36-151.36 154.72-155.36a38.4 38.4 0 0 0-22.72-14.08z"
        p-id="861"></path>
</svg>