<?xml version="1.0" standalone="no"?><!DOCTYPE svg PUBLIC "-//W3C//DTD SVG 1.1//EN" "http://www.w3.org/Graphics/SVG/1.1/DTD/svg11.dtd"><svg t="1708758662197" class="icon" viewBox="0 0 1024 1024" version="1.1" xmlns="http://www.w3.org/2000/svg" p-id="23374" xmlns:xlink="http://www.w3.org/1999/xlink" width="200" height="200"><path d="M587.776 929.792H299.52c-84.992 0-154.624-69.12-154.624-154.624v-227.84H58.368c-10.752 0-20.48-6.656-24.064-16.384-3.584-10.24-1.024-21.504 7.168-28.672l453.632-401.408c9.728-8.704 24.576-8.704 34.304 0L983.04 502.272c8.192 7.168 10.752 18.432 7.168 28.672-3.584 10.24-13.312 16.384-24.064 16.384h-86.528v227.84c0 53.248-27.136 102.4-72.192 131.072-12.288 7.68-28.16 4.096-35.328-8.192-7.68-11.776-4.096-28.16 8.192-35.328a102.4 102.4 0 0 0 48.128-87.04V522.24c0-14.336 11.776-25.6 25.6-25.6h44.544L512 154.624 125.952 496.128h44.544c14.336 0 25.6 11.776 25.6 25.6v253.44c0 56.832 46.08 102.912 102.912 102.912h288.256c14.336 0 25.6 11.776 25.6 25.6 0.512 14.336-10.752 26.112-25.088 26.112z m-0.512 0c-14.336 0-25.6-11.776-25.6-25.6 0-14.336 11.776-25.6 25.6-25.6 21.504 0 38.4-17.408 38.4-38.4v-186.88c0-21.504-17.408-38.4-38.4-38.4H436.736c-21.504 0-38.4 17.408-38.4 38.4v120.32c0 14.336-11.776 25.6-25.6 25.6s-25.6-11.776-25.6-25.6v-120.32c0-49.664 40.448-90.112 90.112-90.112h150.528c49.664 0 90.112 40.448 90.112 90.112V839.68c-0.512 49.664-40.96 90.112-90.624 90.112z" p-id="23375"></path></svg>
