<?xml version="1.0" encoding="UTF-8"?>
<svg id="uuid-0bc229b4-af95-403b-bc40-f7f8906b91b1" data-name="图层 1" xmlns="http://www.w3.org/2000/svg" viewBox="-100 -50 1024 800">
  <defs>
    <style>
      .uuid-ba0b7c06-3e5a-499a-8afb-c7816cf554b5 {
        fill: #fff;
        stroke: #fff;
        stroke-miterlimit: 10;
      }
    </style>
  </defs>
  <path class="uuid-ba0b7c06-3e5a-499a-8afb-c7816cf554b5" d="M841.08,89.07c-3.75-48.33-42.32-86.33-89.36-86.33-2.78,0-5.52.14-8.23.4v.05h-12.73c-7.26,0-13.15,5.61-13.15,12.52v73.36H124.4V8.39c-1.75-4.62-6.02-7.89-11.03-7.89h-11.88v.1c-1.41-.06-2.82-.1-4.24-.1C43.81.5.5,46.16.5,102.49v535.88l.37,9.84c3.96,45.84,39.6,82.02,83.64,84l7.64.09h644.96v-.23c16.12.23,23.76,1.12,37.34-.67l12.73-3.58c39.46-14.15,53.46-50.04,53.46-87.67l.85-540.35-.42-10.74ZM26.81,172.39v-72.59c0-41.01,32.3-74.25,72.13-74.25h2.55v521.57h-16.12v.06c-22.78.8-43.37,10.74-58.56,26.46V172.39ZM803.2,672.97c-12.36,17.59-26.64,27.98-49.11,31.6l-13.58.89H82.82c-30.21-5.89-51.76-27.69-55.97-55.81l-.89-10.4.85-10.86c5.41-32.86,36.02-58.03,72.98-58.03h16.24c3.79-1.1,6.78-4.16,7.9-8.05l.48-4.47V114.12h593.2v446.86c0,5.06,3.39,9.38,8.2,11.18h18.11v.34c10.06,1.17,20.02,3.9,29.35,8.33,39.22,18.6,52.62,59.85,29.94,92.13ZM815.19,105.17v476.68c-17.5-17.44-42.68-29.48-71.29-32.61V28.23h14c26.67,6.03,46.59,20.87,55.59,47.42l1.7,13.42v16.1Z"/>
  <path class="uuid-ba0b7c06-3e5a-499a-8afb-c7816cf554b5" d="M556.71,494.71s-.03.04-.05.06h0s-26.77,26.94-26.77,26.94h.01c-2.63,2.96-2.66,7.59.02,10.55s7.07,3.15,9.98.52h.01s26.77-26.93,26.77-26.93h0s.04-.04.06-.05c2.9-2.92,3.01-7.77.24-10.83-2.77-3.06-7.37-3.17-10.27-.25Z"/>
  <path class="uuid-ba0b7c06-3e5a-499a-8afb-c7816cf554b5" d="M425.23,439.44l7.28-18.51h0s.01-.02.02-.04c.79-2.01-1.43-7.33-5.13-8.95-3.71-1.62-7.5,1.08-8.29,3.09,0,.01,0,.03-.01.04h0s-7.28,18.51-7.28,18.51h.02c-.57,2.01.62,7.28,4.21,8.85,3.59,1.57,8.24-1.16,9.18-2.99h.02Z"/>
  <path class="uuid-ba0b7c06-3e5a-499a-8afb-c7816cf554b5" d="M492.6,521.56s-.07-.05-.11-.08h0s-54.54-41.92-54.54-41.92v.02c-5.77-4.17-9.32-2.52-11.56.72-2.24,3.23-2.33,6.84,3.21,11.35v.02s54.53,41.92,54.53,41.92h0s.07.06.11.08c5.91,4.54,9.43,3.18,11.74-.16,2.31-3.34,2.54-7.39-3.38-11.94Z"/>
  <path class="uuid-ba0b7c06-3e5a-499a-8afb-c7816cf554b5" d="M399.18,340.23s.03.04.04.06h0s17.6,29.45,17.6,29.45h.02c1.99,2.93,6.37,3.77,9.65,1.59,3.29-2.18,4.26-6.58,2.61-9.74h.02s-17.6-29.46-17.6-29.46h0s-.02-.04-.03-.06c-1.91-3.19-6.07-4.11-9.46-1.85s-4.74,6.82-2.83,10.02Z"/>
  <path class="uuid-ba0b7c06-3e5a-499a-8afb-c7816cf554b5" d="M337.88,232.8c1.72-3.82-.57-8.76-5.12-11.04-.03-.01-.06-.02-.09-.04h0s-41.95-20.98-41.95-20.98v.02c-4.44-1.98-9.25-.7-10.91,3s.44,8.44,4.7,10.8v.02s41.94,20.98,41.94,20.98h0s.05.03.08.04c4.55,2.27,9.63,1.02,11.35-2.8Z"/>
  <path class="uuid-ba0b7c06-3e5a-499a-8afb-c7816cf554b5" d="M381.89,290.18c3.64-1.77,5.09-7.74,4.4-9.33,0,0-.01-.02-.02-.03h0s-6.41-14.67-6.41-14.67h-.02c-.85-1.42-5.4-3.79-8.93-2.08-3.53,1.71-4.72,6.87-4.24,8.47h-.02s6.41,14.68,6.41,14.68h0s0,.02,0,.03c.69,1.59,5.16,4.69,8.8,2.92Z"/>
  <ellipse class="uuid-ba0b7c06-3e5a-499a-8afb-c7816cf554b5" cx="259.78" cy="193.17" rx="13.76" ry="14.51"/>
  <ellipse class="uuid-ba0b7c06-3e5a-499a-8afb-c7816cf554b5" cx="358.42" cy="242.35" rx="13.76" ry="14.51"/>
  <ellipse class="uuid-ba0b7c06-3e5a-499a-8afb-c7816cf554b5" cx="389.78" cy="310.06" rx="13.76" ry="14.51"/>
  <ellipse class="uuid-ba0b7c06-3e5a-499a-8afb-c7816cf554b5" cx="436.42" cy="391.48" rx="13.76" ry="14.51"/>
  <ellipse class="uuid-ba0b7c06-3e5a-499a-8afb-c7816cf554b5" cx="409.66" cy="463.23" rx="13.76" ry="14.51"/>
  <ellipse class="uuid-ba0b7c06-3e5a-499a-8afb-c7816cf554b5" cx="514.42" cy="545.45" rx="13.76" ry="14.51"/>
  <ellipse class="uuid-ba0b7c06-3e5a-499a-8afb-c7816cf554b5" cx="580.95" cy="481.77" rx="13.76" ry="14.51"/>
  <ellipse class="uuid-ba0b7c06-3e5a-499a-8afb-c7816cf554b5" cx="181.01" cy="444.69" rx="6.12" ry="6.45"/>
  <ellipse class="uuid-ba0b7c06-3e5a-499a-8afb-c7816cf554b5" cx="335.48" cy="530.94" rx="6.12" ry="6.45"/>
  <ellipse class="uuid-ba0b7c06-3e5a-499a-8afb-c7816cf554b5" cx="344.66" cy="654.28" rx="6.12" ry="6.45"/>
  <ellipse class="uuid-ba0b7c06-3e5a-499a-8afb-c7816cf554b5" cx="619.95" cy="274.59" rx="6.12" ry="6.45"/>
  <ellipse class="uuid-ba0b7c06-3e5a-499a-8afb-c7816cf554b5" cx="653.6" cy="362.46" rx="6.12" ry="6.45"/>
  <ellipse class="uuid-ba0b7c06-3e5a-499a-8afb-c7816cf554b5" cx="511.36" cy="162.54" rx="6.12" ry="6.45"/>
  <ellipse class="uuid-ba0b7c06-3e5a-499a-8afb-c7816cf554b5" cx="659.71" cy="623.65" rx="6.12" ry="6.45"/>
</svg>