<svg t="1676278262583" class="icon" viewBox="0 0 1024 1024" version="1.1" xmlns="http://www.w3.org/2000/svg" p-id="999" width="200" height="200"><path d="M362.666667 533.333333a42.666667 42.666667 0 1 1-42.666667 42.666667 42.666667 42.666667 0 0 1 42.666667-42.666667m0-85.333333a128 128 0 1 0 128 128 128 128 0 0 0-128-128z m298.666666 85.333333a42.666667 42.666667 0 1 1-42.666666 42.666667 42.666667 42.666667 0 0 1 42.666666-42.666667m0-85.333333a128 128 0 1 0 128 128 128 128 0 0 0-128-128z m170.666667 128a170.666667 170.666667 0 0 1-320 82.346667 170.666667 170.666667 0 1 1 0-164.693334A170.666667 170.666667 0 0 1 832 576z m-170.666667-256a254.293333 254.293333 0 0 0-149.333333 48.426667 256 256 0 1 0 0 415.146666A256 256 0 1 0 661.333333 320z m-298.666666-42.666667a294.826667 294.826667 0 0 1 128 28.8 128 128 0 0 0-254.293334 0A294.826667 294.826667 0 0 1 362.666667 277.333333z m298.666666 0a294.826667 294.826667 0 0 1 128 28.8 128 128 0 0 0-254.293333 0A294.826667 294.826667 0 0 1 661.333333 277.333333z" p-id="1000"></path></svg>
