<?xml version="1.0" encoding="utf-8"?>
<!-- Generator: Adobe Illustrator 28.3.0, SVG Export Plug-In . SVG Version: 6.00 Build 0)  -->
<svg version="1.1" id="图层_1" xmlns="http://www.w3.org/2000/svg" xmlns:xlink="http://www.w3.org/1999/xlink" x="0px" y="0px"
	 viewBox="0 0 200 200" style="enable-background:new 0 0 200 200;" xml:space="preserve">
<style type="text/css">
	.st0{stroke:#000000;stroke-width:1;stroke-miterlimit:9.9998;}
</style>
<g>
	<polygon class="st0" points="117.7,159.2 117.7,175.2 133.7,175.2 176.2,132.6 160.2,116.6 	"/>

		<rect x="173.5" y="103.8" transform="matrix(0.7071 -0.7071 0.7071 0.7071 -29.2513 159.8446)" class="st0" width="9.6" height="22.8"/>
	<path class="st0" d="M190.6,114.8l-0.8-2.1l-2-2.8c0,0-1.9-1.9-2.5-2.5c-0.5-0.6-2.5-2.1-2.5-2.1l-1.8-1.4l-2.7-0.9l-2.7-0.1
		l-1,0.3l15.7,15.7l0.6-1.3l0.2-1.2L190.6,114.8z"/>
</g>
<g>
	<g>
		<path d="M145.2,62.4H129c-0.8,0-1.5-0.5-1.8-1.2l-5.8-14.5c-1.7-4.1-5.7-6.8-10.1-6.8H68.7c-4.3,0-8.2,2.5-10,6.5L51.9,61
			c-0.3,0.7-1,1.1-1.8,1.1H33.2c-6,0-10.9,4.9-10.9,11v61c0,6,4.9,11,10.9,11h112c6,0,10.9-4.9,10.9-11V73.4
			C156.1,67.3,151.2,62.4,145.2,62.4L145.2,62.4z M147.1,134.2c0,1.1-0.9,1.9-1.9,1.9h-112c-1.1,0-1.9-0.9-1.9-1.9V73.4
			c0.1-1,0.9-1.7,1.9-1.7h16.9c4.3,0.1,8.3-2.5,10-6.5L66.8,50c0.3-0.7,1-1.2,1.8-1.2H111c0.8,0,1.5,0.5,1.8,1.2l5.9,14.5
			c1.5,4.4,5.7,7.3,10.3,7.1h16.2c1.1,0,1.9,0.9,1.9,2V134.2z M147.1,134.2"/>
		<path d="M89.2,69.2c-11.6,0-22,7-26.4,17.7c-4.4,10.7-2,23,6.2,31.2c8.2,8.2,20.5,10.6,31.2,6.2c10.7-4.4,17.7-14.9,17.7-26.4
			c0-7.6-3-14.9-8.4-20.2C104,72.2,96.7,69.1,89.2,69.2L89.2,69.2z M89.2,117.3c-7.9,0-15.1-4.8-18.1-12.1c-3-7.3-1.3-15.7,4.3-21.3
			c5.6-5.6,14-7.3,21.4-4.2c7.3,3,12.1,10.2,12.1,18.1c0,5.2-2.1,10.2-5.7,13.8C99.3,115.3,94.3,117.3,89.2,117.3L89.2,117.3z
			 M26,53.4h18c2.5,0,4.5-2,4.5-4.5c0-2.5-2-4.5-4.5-4.5H26c-2.5,0-4.5,2-4.5,4.5C21.5,51.3,23.5,53.4,26,53.4L26,53.4z M26,53.4"/>
	</g>
</g>
</svg>
