<?xml version="1.0" encoding="utf-8"?>
<!-- Generator: Adobe Illustrator 28.3.0, SVG Export Plug-In . SVG Version: 6.00 Build 0)  -->
<svg version="1.1" id="图层_1" xmlns="http://www.w3.org/2000/svg" xmlns:xlink="http://www.w3.org/1999/xlink" x="0px" y="0px"
	 viewBox="0 0 200 200" style="enable-background:new 0 0 200 200;" xml:space="preserve">
<style type="text/css">
	.st0{fill:#FFFFFF;}
</style>
<path class="st0" d="M129.3,117.7h-6l-2.6-2.3c7.5-8.8,12.1-20.1,12.1-32.6c0-27.7-22.4-50.1-50.1-50.1S32.6,55.1,32.6,82.8
	S55,133,82.7,133c12.6,0,24.1-4.6,33-12.4l2.3,2.2v6.3l38.3,38.2l11.2-11.3L129.3,117.7z M83.1,117.7c-19.3,0-34.9-15.6-34.9-34.9
	s15.6-34.9,34.9-34.9S118,63.5,118,82.8S102.4,117.7,83.1,117.7z"/>
</svg>
