<?xml version="1.0" encoding="utf-8"?>
<!-- Generator: Adobe Illustrator 28.3.0, SVG Export Plug-In . SVG Version: 6.00 Build 0)  -->
<svg version="1.1" id="图层_1" xmlns="http://www.w3.org/2000/svg" xmlns:xlink="http://www.w3.org/1999/xlink" x="0px" y="0px"
	 viewBox="0 0 200 200" style="enable-background:new 0 0 200 200;" xml:space="preserve">
<path d="M135.7,103.5c-2.5-4.1-6.9-6.5-11.4-6.8l-27.9-0.1c1.8-5.4,2.8-10.9,2.8-16.6c0-2.8-0.2-5.6-0.8-8.8L97.9,69
	c-1.5-6.4-7.1-10.9-13.8-10.9c-7.8,0-14.1,6.3-14.1,14.1c0,0.5,0,0.9,0.1,1.2c-0.3,13.9-16.9,28.1-22.6,28.1l0,0H27
	c-2.7,0-4.8,2.3-4.8,5v57.8c0,2.7,2.4,4.7,5.3,4.8h17.9l0.7,0.1l0.6-0.1h68.2c2.4-0.1,4.7-0.9,6.8-2.1c2.1-1.4,3.9-3.4,4.7-5.1
	l0.8-1.4c4.7-11.2,10.4-45.4,10.7-46.9l0.1-1.4C137.9,109,137.3,106.1,135.7,103.5z M30.4,109.8h11.2v50.9H30.4V109.8z M119.5,156.6
	l-0.6,0.8c-0.5,1-1.2,1.8-2.1,2.4c-0.8,0.6-1.8,0.8-2.5,0.9H49.9v-51.3c11-2.1,28.2-18.9,28.6-36.3v-0.9c0-3.2,2.6-5.8,5.8-5.8
	c2.7,0,5,1.8,5.5,4.4l0.5,2c0.5,2.4,0.6,4.8,0.6,7.1c0,4.7-0.8,9.5-2.4,13.9l-3.8,11h38l0.9,0.1c2,0.1,3.8,1.1,5,2.8
	c0.7,1,1,2.3,0.9,4.2C129.4,112.4,123.6,146.8,119.5,156.6z"/>
<path d="M121.9,52.1l10.9,13L131.6,82c-0.1,1.4,0.9,2.5,2.3,2.6c0.3,0,0.8,0,1.1-0.2l15.7-6.4l15.7,6.4c0.8,0.3,1.7,0.2,2.3-0.2
	c0.7-0.5,1-1.2,1-2.1l-1.2-16.9l10.9-13c0.6-0.7,0.7-1.5,0.5-2.3l0,0c-0.2-0.8-0.9-1.4-1.7-1.6l-16.5-3.9l-8.9-14.4
	c-0.7-1.1-2.1-1.5-3.3-0.8c-0.3,0.2-0.6,0.5-0.8,0.8l-9,14.3l-16.5,3.9c-1.2,0.3-2,1.6-1.8,2.8C121.5,51.4,121.7,51.8,121.9,52.1z"
	/>
</svg>
