<?xml version="1.0" standalone="no"?><!DOCTYPE svg PUBLIC "-//W3C//DTD SVG 1.1//EN" "http://www.w3.org/Graphics/SVG/1.1/DTD/svg11.dtd"><svg t="1708757068934" class="icon" viewBox="0 0 1024 1024" version="1.1" xmlns="http://www.w3.org/2000/svg" p-id="2258" xmlns:xlink="http://www.w3.org/1999/xlink" width="200" height="200"><path d="M659.925333 128a74.666667 74.666667 0 0 1 71.338667 52.618667L754.56 256H821.333333c64.8 0 117.333333 52.533333 117.333334 117.333333v426.666667c0 64.8-52.533333 117.333333-117.333334 117.333333H202.666667c-64.8 0-117.333333-52.533333-117.333334-117.333333V373.333333c0-64.8 52.533333-117.333333 117.333334-117.333333h66.773333l23.296-75.381333A74.666667 74.666667 0 0 1 364.074667 128h295.850666zM512 405.333333c-88.362667 0-160 71.637333-160 160 0 88.362667 71.637333 160 160 160 88.362667 0 160-71.637333 160-160 0-88.362667-71.637333-160-160-160z m0 256a96 96 0 1 0 0-192 96 96 0 0 0 0 192z" p-id="2259"></path></svg>