<?xml version="1.0" standalone="no"?><!DOCTYPE svg PUBLIC "-//W3C//DTD SVG 1.1//EN" "http://www.w3.org/Graphics/SVG/1.1/DTD/svg11.dtd"><svg t="1708757938828" class="icon" viewBox="0 0 1066 1024" version="1.1" xmlns="http://www.w3.org/2000/svg" p-id="12315" xmlns:xlink="http://www.w3.org/1999/xlink" width="208.203125" height="200"><path d="M237.586534 321.430749a296.019419 296.019419 0 1 0 592.038838 0 296.019419 296.019419 0 1 0-592.038838 0z" fill="#FFFFFF" p-id="12316"></path><path d="M533.605953 642.858118A321.429369 321.429369 0 1 1 855.66832 321.430749a322.063368 322.063368 0 0 1-322.063367 321.429369z m0-592.038838a270.609469 270.609469 0 1 0 270.609468 270.610469 270.609469 270.609469 0 0 0-270.609468-270.609469z" p-id="12317" data-spm-anchor-id="a313x.search_index.0.i13.53433a81adengs" class="selected" fill="#2c2c2c"></path><path d="M533.605953 600.9332A279.503451 279.503451 0 1 1 813.108404 321.429749a279.503451 279.503451 0 0 1-279.502451 279.503451z m0-508.188002a228.684551 228.684551 0 1 0 229.319549 228.684551 228.049552 228.049552 0 0 0-229.319549-228.049552z" p-id="12318"></path><path d="M26.052949 702.570001a296.019419 296.019419 0 1 0 592.038838 0 296.019419 296.019419 0 1 0-592.038838 0z" fill="#FFFFFF" p-id="12319"></path><path d="M322.072368 1023.99937a322.063368 322.063368 0 1 1 322.064368-321.429369A322.063368 322.063368 0 0 1 322.072368 1023.99937z m0-592.673837a271.244468 271.244468 0 1 0 270.609469 271.244468 271.244468 271.244468 0 0 0-270.609469-271.244468z" p-id="12320"></path><path d="M322.072368 981.438454A279.503451 279.503451 0 1 1 601.575819 702.570001 279.503451 279.503451 0 0 1 322.072368 981.439454z m0-508.188003a228.684551 228.684551 0 1 0 228.684551 228.684551 228.684551 228.684551 0 0 0-228.684551-228.049552z" p-id="12321" data-spm-anchor-id="a313x.search_index.0.i12.53433a81adengs" class="selected" fill="#2c2c2c"></path><path d="M449.119118 702.570001a296.019419 296.019419 0 1 0 592.038838 0 296.019419 296.019419 0 1 0-592.038838 0z" fill="#FFFFFF" p-id="12322"></path><path d="M745.138537 1023.99937a322.063368 322.063368 0 1 1 321.428369-321.429369A322.063368 322.063368 0 0 1 745.137537 1023.99937z m0-592.673837a271.244468 271.244468 0 1 0 271.879467 271.244468 271.244468 271.244468 0 0 0-271.879467-271.244468z" p-id="12323"></path><path d="M745.138537 981.438454a279.503451 279.503451 0 1 1 279.502452-278.868453A279.503451 279.503451 0 0 1 745.138537 981.439454z m0-508.188003a228.684551 228.684551 0 1 0 228.684551 228.684551 228.684551 228.684551 0 0 0-228.684551-228.049552z" p-id="12324" data-spm-anchor-id="a313x.search_index.0.i11.53433a81adengs" class="selected"></path></svg>
