<?xml version="1.0" standalone="no"?><!DOCTYPE svg PUBLIC "-//W3C//DTD SVG 1.1//EN" "http://www.w3.org/Graphics/SVG/1.1/DTD/svg11.dtd"><svg t="1708758111711" class="icon" viewBox="0 0 1024 1024" version="1.1" xmlns="http://www.w3.org/2000/svg" p-id="17707" xmlns:xlink="http://www.w3.org/1999/xlink" width="200" height="200"><path d="M196.150344 342.428224a17.535204 17.535204 0 0 1-14.137758-27.617946l7.562057-10.959502A17.535204 17.535204 0 1 1 218.069349 324.45464l-7.671652 10.959503a17.316014 17.316014 0 0 1-14.247353 7.014081z"  p-id="17708"></path><path d="M233.193462 291.137753a17.644799 17.644799 0 0 1-10.192337-3.28785 17.425609 17.425609 0 0 1-4.055016-24.768475l14.466543-20.27508A17.535204 17.535204 0 0 1 261.907358 263.081428l-14.466543 20.275079a17.644799 17.644799 0 0 1-14.247353 7.781246z m43.838009-60.934832a17.425609 17.425609 0 0 1-14.247353-27.617946l14.466543-20.275079a17.535204 17.535204 0 0 1 28.494706 20.275079l-14.466543 20.275079a17.644799 17.644799 0 0 1-14.576138 7.342867z m43.838009-60.934833A17.425609 17.425609 0 0 1 305.745367 141.650142l14.466543-20.275079a17.535204 17.535204 0 0 1 28.494706 20.275079l-14.576138 20.384675a17.425609 17.425609 0 0 1-13.918568 7.233271z"  p-id="17709"></path><path d="M363.721134 108.44285A17.535204 17.535204 0 0 1 349.583376 80.71531l7.671652-10.959503a17.096824 17.096824 0 0 1 15.562493-7.233271l13.041808 0.986355A17.425609 17.425609 0 0 1 383.009858 98.688893h-3.178256l-1.863115 2.630281a17.973584 17.973584 0 0 1-14.247353 7.123676z"  p-id="17710"></path><path d="M848.45992 136.170391h-1.424735L820.841974 134.088086a17.535204 17.535204 0 0 1 2.849471-34.851218l25.75483 2.082306a17.425609 17.425609 0 0 1-1.424735 34.851217z m-76.716516-6.137321h-1.424735l-26.193211-2.191901a17.535204 17.535204 0 1 1 2.849471-34.851217l25.75483 2.082306a17.535204 17.535204 0 0 1-1.31514 34.960812z m-77.374086-6.246916h-1.424735l-25.754831-2.082306a17.425609 17.425609 0 1 1 2.739876-34.851217l25.75483 2.082305a17.535204 17.535204 0 0 1-1.31514 34.960813z m-77.374086-6.246917h-1.424736l-25.75483-2.082305a17.425609 17.425609 0 0 1 2.739876-34.851217l25.864425 2.082305a17.535204 17.535204 0 0 1-1.424735 34.960812z m-77.374086-6.246916h-1.424736l-26.302805-1.643925a17.535204 17.535204 0 0 1 2.84947-34.851218l25.754831 1.972711a17.535204 17.535204 0 0 1-1.424736 34.960812z m-77.374087-6.246916h-1.97271l-25.75483-2.082306a17.425609 17.425609 0 0 1-16.000874-18.740749A17.644799 17.644799 0 0 1 437.259394 68.002287l25.754831 2.082305a17.535204 17.535204 0 0 1-1.424736 34.960813z"  p-id="17711"></path><path d="M913.120983 141.430952h-1.424735l-13.041808-1.09595a17.535204 17.535204 0 0 1 2.849471-34.851217l13.041808 1.09595a17.425609 17.425609 0 0 1-1.424736 34.851217z"  p-id="17712"></path><path d="M198.89022 731.60015L104.748095 778.178035a122.746426 122.746426 0 0 1-32.001747-42.194084 160.995089 160.995089 0 0 1-14.795328-53.043991L152.312335 636.362075"  p-id="17713"></path><path d="M104.748095 804.04246a26.521996 26.521996 0 0 1-16.110468-5.479751 146.966926 146.966926 0 0 1-39.673399-51.948041A187.407489 187.407489 0 0 1 31.75781 684.145505a26.19321 26.19321 0 0 1 14.685733-24.987665l94.142124-46.249099A26.19321 26.19321 0 1 1 163.271837 659.925005l-76.716516 37.591093a141.81596 141.81596 0 0 0 9.425172 27.179566 100.498636 100.498636 0 0 0 13.480188 21.261434l77.264491-37.919878a26.19321 26.19321 0 0 1 23.12455 47.016265l-93.59415 46.2491a25.09726 25.09726 0 0 1-11.507477 2.739875zM318.89677 989.148454a26.19321 26.19321 0 0 1-21.919005-40.221373l209.655279-332.07292a26.412401 26.412401 0 0 1 21.919004-12.274642 26.19321 26.19321 0 0 1 21.919005 11.836262l218.532475 332.072919a26.19321 26.19321 0 0 1-43.838009 28.823491L529.100023 679.542514 341.034964 976.873811a26.19321 26.19321 0 0 1-22.138194 12.274643z"  p-id="17714"></path><path d="M528.661643 1023.999671a26.19321 26.19321 0 0 1-26.302805-26.63159V630.772729a26.302805 26.302805 0 0 1 52.496016 0V997.368081a26.19321 26.19321 0 0 1-26.193211 26.63159z"  p-id="17715"></path><path d="M792.347268 486.436084L196.259939 779.38358l-42.961249-87.456828-37.919878-77.264491 596.087329-292.837901"  p-id="17716"></path><path d="M135.325106 636.362075l-3.397445-29.809846 579.53848-284.727869"  p-id="17717"></path><path d="M135.325106 662.664881a26.19321 26.19321 0 0 1-25.97402-23.234145l-3.507041-29.919441a26.19321 26.19321 0 0 1 14.576138-26.521996L700.287449 298.26143a26.19321 26.19321 0 0 1 23.12455 47.016265l-563.318418 276.617837 1.315141 10.959503a26.19321 26.19321 0 0 1-23.014955 29.042681z"  p-id="17718"></path><path d="M792.347268 486.436084L205.246731 774.890184l-26.083616-30.467416"  p-id="17719"></path><path d="M205.246731 801.19299a25.75483 25.75483 0 0 1-20.055889-9.205982l-26.193211-30.467416a26.19321 26.19321 0 0 1 39.782994-34.193648l12.932212 15.124114 568.907764-279.467309a26.19321 26.19321 0 0 1 23.12455 47.016265L216.863803 798.453114a25.864425 25.864425 0 0 1-11.617072 2.739876z"  p-id="17720"></path><path d="M528.661643 639.540331m-78.689226 0a78.689226 78.689226 0 1 0 157.378453 0 78.689226 78.689226 0 1 0-157.378453 0Z"  p-id="17721"></path><path d="M528.661643 735.655166a96.114835 96.114835 0 1 1 96.114835-96.114835 96.22443 96.22443 0 0 1-96.114835 96.114835z m0-157.268858a61.154023 61.154023 0 1 0 61.154023 61.154023 61.263618 61.263618 0 0 0-61.154023-61.154023z"  p-id="17722"></path><path d="M528.661643 744.422768c-59.510097 0-106.307172-39.015828-113.759633-94.799695l51.94804-7.014081c4.931776 36.385548 36.385548 49.31776 61.811593 49.31776a57.646982 57.646982 0 0 0 56.441437-52.824801A64.003493 64.003493 0 0 0 568.773422 590.989736l39.892588-33.974457a114.745989 114.745989 0 0 1 29.261871 82.963432 109.595023 109.595023 0 0 1-109.266238 104.444057z"  p-id="17723"></path><path d="M906.326092 487.312844L804.293126 537.068985l3.945421-2.739876a529.234365 529.234365 0 0 1-87.676019-122.308045 698.0107 698.0107 0 0 1-43.838009-131.514028v-2.739875l101.923371-50.084926"  p-id="17724"></path><path d="M690.643087 332.016697l-10.192337-53.482371 102.032966-50.084926"  p-id="17725"></path><path d="M690.643087 358.209907a26.302805 26.302805 0 0 1-25.75483-21.261434l-10.192337-53.482371a26.083615 26.083615 0 0 1 14.247353-28.385111l101.923371-50.084926a26.19321 26.19321 0 1 1 23.12455 47.12586l-84.059383 41.317324 6.466106 33.755267a26.302805 26.302805 0 0 1-20.823054 30.686606 24.987665 24.987665 0 0 1-4.931776 0.328785z"  p-id="17726"></path><path d="M909.613943 487.312844l-96.00524 47.12586-26.741186-23.56293"  p-id="17727"></path><path d="M813.608703 560.74151a26.19321 26.19321 0 0 1-17.316014-6.575702l-26.741186-23.56293a26.19321 26.19321 0 1 1 34.632028-39.344613l13.589783 11.945858 79.785176-39.454209a26.19321 26.19321 0 1 1 23.12455 47.12586l-96.00524 47.12586a26.521996 26.521996 0 0 1-11.069097 2.739876z"  p-id="17728"></path><path d="M812.731942 377.827417c39.235018 80.223557 85.155333 138.308919 102.471347 129.760507S914.764909 427.473962 875.639486 347.031215s-85.155333-138.199324-102.471347-129.760507 0.21919 80.442747 39.563803 160.556709z"  p-id="17729"></path><path d="M911.477058 526.109482c-43.838009 0-103.019321-116.937889-114.526799-140.391224-18.411964-37.700688-75.401376-162.529419-31.672961-183.900448a25.206855 25.206855 0 0 1 10.959502-2.630281c43.838009 0 103.019321 116.937889 114.526799 140.391225a587.429322 587.429322 0 0 1 42.303679 110.690973c6.466106 26.083615 12.384238 62.030783-10.959503 73.31907a26.631591 26.631591 0 0 1-10.630717 2.520685zM783.798856 239.408903c1.424735 20.494269 13.370593 67.181749 44.605175 130.746862s60.606048 101.156206 75.949351 115.293964c-1.424735-20.494269-13.370593-67.072154-44.605175-130.637267S798.92297 253.108281 783.798856 239.408903z"  p-id="17730"></path><path d="M915.203289 507.587924c17.316014-8.438817 0-80.333152-39.782993-160.556709s-85.155333-138.199324-102.471347-129.760507"  p-id="17731"></path><path d="M915.203289 533.890729a26.302805 26.302805 0 0 1-19.507914-43.838009c0.65757-15.014518-10.959502-63.345923-43.838009-131.514027s-64.880254-106.526362-76.716516-115.18437a26.19321 26.19321 0 0 1-13.370593-49.75614c47.893025-23.34374 106.745552 78.798821 137.541754 141.81596a596.744899 596.744899 0 0 1 43.070844 112.444493c4.602991 18.411964 16.658443 67.510534-15.343304 83.182622a25.09726 25.09726 0 0 1-11.836262 2.849471zM800.566895 534.657894a17.316014 17.316014 0 0 1-13.808973-6.794891 902.953393 902.953393 0 0 1-65.757014-103.567297A449.997164 449.997164 0 0 1 678.368444 318.426914a17.535204 17.535204 0 0 1 34.084053-7.781246 422.598408 422.598408 0 0 0 39.235018 96.772405 885.089404 885.089404 0 0 0 62.469163 98.63552 17.316014 17.316014 0 0 1-3.287851 24.43969 17.535204 17.535204 0 0 1-10.301932 4.164611zM205.246731 773.575044a17.535204 17.535204 0 0 1-13.041808-6.356511l-5.918131-6.685297c-17.206419-19.288724-20.165484-23.234145-39.563803-61.044427a200.887677 200.887677 0 0 1-21.919005-70.798385 17.425609 17.425609 0 0 1 34.851217-2.520686 170.749046 170.749046 0 0 0 17.754394 57.427792c18.083179 35.289597 19.617509 37.043118 34.522432 53.701561l6.027727 6.794892a17.535204 17.535204 0 0 1-13.151403 29.042681z"  p-id="17732"></path><path d="M200.314955 256.505726l28.165921 56.989412 62.907543 9.205982-45.59153 44.385984 10.849908 62.688353-56.331842-29.590656-56.331842 29.590656 10.740312-62.688353-45.591529-44.385984 63.017138-9.205982 28.165921-56.989412z"  p-id="17733"></path><path d="M256.646797 447.310661a16.987229 16.987229 0 0 1-8.219627-2.082305l-48.112215-25.316451L152.312335 445.228356a17.425609 17.425609 0 0 1-25.31645-18.411964l9.205981-53.591966L97.514823 335.194953a17.425609 17.425609 0 0 1 9.644362-29.809847l53.920752-7.781246 24.110905-48.87938a17.425609 17.425609 0 0 1 15.672088-9.753957 17.644799 17.644799 0 0 1 15.672088 9.753957L239.988353 297.60386l53.920751 7.781246A17.644799 17.644799 0 0 1 308.046862 317.878939a17.316014 17.316014 0 0 1-4.493396 17.863989l-38.906233 38.029473 9.205982 53.591966a17.535204 17.535204 0 0 1-7.014081 17.096823 16.768038 16.768038 0 0 1-10.192337 2.849471z m-109.595023-112.444493l20.165484 19.727104a17.316014 17.316014 0 0 1 5.041371 15.452898l-4.712586 27.837136 24.87807-13.151403a17.863989 17.863989 0 0 1 16.329659 0l24.987665 13.151403-4.712586-27.837136a17.316014 17.316014 0 0 1 5.041371-15.452898l20.165484-19.727104-27.837136-4.055016a17.206419 17.206419 0 0 1-13.151402-9.534767L200.314955 295.959934l-12.493833 25.316451a17.425609 17.425609 0 0 1-13.151403 9.534767z"  p-id="17734"></path><path d="M379.393222 17.478981l18.740749 37.919878 41.865299 6.137322-30.357822 29.481061 7.233272 41.646108-37.481498-19.617509-37.371903 19.617509 7.123677-41.646108-30.248226-29.481061 41.865298-6.137322 18.631154-37.919878z"  p-id="17735"></path><path d="M342.021319 150.198554a17.863989 17.863989 0 0 1-10.301932-3.397446 17.206419 17.206419 0 0 1-6.904486-17.096823l5.589346-32.878507-23.672525-22.795765a17.316014 17.316014 0 0 1-4.493396-17.863989A17.644799 17.644799 0 0 1 316.704869 43.891382l32.878507-4.712586L363.721134 9.80733a17.425609 17.425609 0 0 1 31.344176 0l14.685733 29.700251 32.878507 4.712586a17.535204 17.535204 0 0 1 9.644362 29.809846L428.491792 97.154563l5.589347 32.878507a17.535204 17.535204 0 0 1-25.426046 18.411964l-29.261871-15.343303-29.261871 15.343303a16.548848 16.548848 0 0 1-8.110032 1.75352z m14.466543-76.716516l4.822181 4.822181a17.316014 17.316014 0 0 1 5.041371 15.452898l-1.09595 6.794892 6.246917-2.959066a16.987229 16.987229 0 0 1 16.220063 0l6.137321 3.178256-1.205545-6.794892a17.644799 17.644799 0 0 1 5.041371-15.452898l4.931776-4.822181-6.794891-0.986355A17.206419 17.206419 0 0 1 382.461883 63.180106l-3.068661-6.137321-2.959065 6.137321a17.644799 17.644799 0 0 1-13.260998 9.534767z"  p-id="17736"></path><path d="M898.65444 41.151506l23.34374 47.454645 52.276826 7.562057-37.810283 36.823927 8.877197 52.167231-46.68748-24.65888-46.797074 24.65888 8.877196-52.167231-37.810282-36.823927 52.276826-7.562057 23.453334-47.454645z"  p-id="17737"></path><path d="M851.857366 202.584975a17.316014 17.316014 0 0 1-17.206419-20.384674l7.342867-43.070844-31.234582-30.467417A17.425609 17.425609 0 0 1 820.841974 78.852194l43.180439-6.246916 19.398319-39.125423a17.206419 17.206419 0 0 1 15.672088-9.753957 17.425609 17.425609 0 0 1 15.672089 9.753957l19.288724 39.125423 43.180439 6.246916a17.644799 17.644799 0 0 1 14.137758 11.945858 17.425609 17.425609 0 0 1-4.383801 17.863988l-31.344177 30.467417 7.452462 43.070844a17.535204 17.535204 0 0 1-25.426045 18.411964l-39.015829-20.384675-38.687043 20.384675a17.754394 17.754394 0 0 1-8.110031 1.97271z m8.658006-94.25172L873.009205 120.607898a17.973584 17.973584 0 0 1 5.041371 15.452898L875.639486 153.486405l15.343303-8.110032a17.863989 17.863989 0 0 1 16.329658 0l15.452898 8.110032-3.28785-17.535204a17.425609 17.425609 0 0 1 4.822181-15.343303l12.384237-12.165048L919.477495 105.81257a17.206419 17.206419 0 0 1-13.151403-9.534767l-7.671652-15.562493-7.781246 15.562493a17.206419 17.206419 0 0 1-13.151403 9.534767z"  p-id="17738"></path></svg>
