<?xml version="1.0" standalone="no"?><!DOCTYPE svg PUBLIC "-//W3C//DTD SVG 1.1//EN" "http://www.w3.org/Graphics/SVG/1.1/DTD/svg11.dtd"><svg t="1708758104448" class="icon" viewBox="0 0 1024 1024" version="1.1" xmlns="http://www.w3.org/2000/svg" p-id="17508" xmlns:xlink="http://www.w3.org/1999/xlink" width="200" height="200"><path d="M930.816 457.557333 708.608 69.12c-3.413333-5.973333-9.045333-10.24-15.530667-11.946667-6.656-1.706667-13.653333-0.853333-19.456 2.56l-95.402667 55.466667c-12.117333 7.168-16.384 22.698667-9.386667 34.816l31.061333 54.272L223.232 423.765333c-12.117333 7.168-16.384 22.698667-9.386667 34.816l22.016 38.570667-133.461333 77.653333c-12.117333 7.168-16.384 22.698667-9.386667 34.816l76.288 133.290667c3.413333 5.973333 8.874667 10.24 15.530667 11.946667 6.656 1.706667 13.653333 0.853333 19.456-2.56l133.12-77.482667 20.309333 35.498667c3.413333 5.973333 9.045333 10.24 15.530667 11.946667 6.656 1.706667 13.653333 0.853333 19.456-2.56l376.149333-219.136 21.674667 37.888c3.413333 5.973333 8.874667 10.24 15.530667 11.946667 6.656 1.706667 13.653333 0.853333 19.456-2.56l95.402667-55.637333C933.546667 485.376 937.813333 469.674667 930.816 457.557333zM201.216 695.125333l-50.858667-88.917333 111.104-64.682667 50.858667 88.917333L201.216 695.125333zM389.632 662.698667l-96.597333-168.96 0 0-22.016-38.570667 353.962667-206.165333 118.613333 207.36L389.632 662.698667zM822.613333 490.666667 625.834667 146.773333l51.2-29.866667 196.778667 343.893333L822.613333 490.666667z" p-id="17509" ></path><path d="M571.221333 704.682667c-5.12-6.656-13.312-10.410667-21.674667-9.898667-8.362667 0.341333-16.042667 4.949333-20.48 12.117333l-136.533333 221.866667c-7.509333 12.117333-3.754667 27.818667 8.362667 35.328 12.117333 7.338667 27.818667 3.584 35.157333-8.362667l117.077333-190.293333L701.44 957.781333c8.533333 11.264 24.746667 13.312 35.84 4.778667 11.093333-8.704 13.312-24.746667 4.608-35.84L571.221333 704.682667z" p-id="17510"></path></svg>
