<?xml version="1.0" standalone="no"?><!DOCTYPE svg PUBLIC "-//W3C//DTD SVG 1.1//EN" "http://www.w3.org/Graphics/SVG/1.1/DTD/svg11.dtd"><svg t="1708758348987" class="icon" viewBox="0 0 1024 1024" version="1.1" xmlns="http://www.w3.org/2000/svg" p-id="22320" xmlns:xlink="http://www.w3.org/1999/xlink" width="200" height="200"><path d="M360.696854 899.680852a63.946232 63.946232 0 1 1-46.552856 119.025253A546.186082 546.186082 0 0 1 6.178945 711.423145a63.946232 63.946232 0 1 1 118.939991-46.979165 418.293618 418.293618 0 0 0 235.66318 235.236872z m537.74518-234.128471a63.946232 63.946232 0 1 1 118.854729 47.320212 546.186082 546.186082 0 0 1-305.23668 304.980895 63.946232 63.946232 0 0 1-47.149688-118.854729 418.293618 418.293618 0 0 0 233.6169-233.446378zM123.669488 360.486224a63.946232 63.946232 0 1 1-119.366299-45.956025A546.186082 546.186082 0 0 1 308.772514 4.68939a63.946232 63.946232 0 0 1 47.917043 118.513683A418.293618 418.293618 0 0 0 123.669488 360.571486z m547.038699-235.833703A63.946232 63.946232 0 0 1 719.648369 6.479885a546.271344 546.271344 0 0 1 299.183104 305.833511 63.946232 63.946232 0 0 1-119.195776 46.382334 418.37888 418.37888 0 0 0-228.92751-234.043209zM511.609962 657.70831a146.138455 146.138455 0 1 1 0-292.27691 146.138455 146.138455 0 0 1 0 292.27691z" p-id="22321"></path></svg>
