<?xml version="1.0" encoding="utf-8"?>
<!-- Generator: Adobe Illustrator 28.3.0, SVG Export Plug-In . SVG Version: 6.00 Build 0)  -->
<svg version="1.1" id="图层_1" xmlns="http://www.w3.org/2000/svg" xmlns:xlink="http://www.w3.org/1999/xlink" x="0px" y="0px"
	 viewBox="0 0 200 200" style="enable-background:new 0 0 200 200;" xml:space="preserve">
<style type="text/css">
	.st0{fill:#FD0000;}
</style>
<path class="st0" d="M174.1,96.8L174.1,96.8l-2.6,0c-2.7-35.1-30.8-63-66-65.4V26c0-4.4-2.4-7.9-5.5-7.9c-3,0-5.5,3.5-5.5,7.9v5.5
	c-34.6,3-62,30.7-64.6,65.4h-3.9c-4.4,0-8,2.4-8,5.5c0,3,3.6,5.5,8,5.5H30c2.7,34.6,30,62.3,64.6,65.3v1c0,4.4,2.4,7.9,5.5,7.9
	s5.5-3.6,5.5-7.9v-0.9c35.2-2.4,63.3-30.2,66-65.4h2.5c4.4,0,7.9-2.4,7.9-5.5S178.5,96.8,174.1,96.8z M107.5,81.4
	c-1.3-2.2-2.5-4.2-3.7-5.9l7.3-2.2c1.1,1.7,2.5,4.1,4.2,7.1l-2.9,0.9H127v7H93.1v-7H107.5z M128.5,98.4l-4.6,5.7
	c-3.8-3.5-7.8-6.8-11.9-10.1l4.5-5C120.4,91.9,124.4,95,128.5,98.4z M73.6,116c-0.5-3.4-1.1-6.9-1.8-10.3c2.8-4.7,5.1-9.7,6.7-15
	h-6.1v-7.3h6.5v-9.7h7.1v9.7h5.6v7.3h-5.6v2.7c1.9,1.5,3.8,3.1,5.7,4.7c3.8-2.6,7.4-5.6,10.6-8.8l5.1,4.5
	c-3.6,3.9-7.7,7.3-12.1,10.3c-0.7-0.9-1.5-1.8-2.2-2.7l-3.7,4.4c-1-1.3-2.2-2.7-3.4-4.1v27.3h-7.2v-23.7
	C77.4,109,75.6,112.6,73.6,116z M94.6,42.5L94.6,42.5l0,19.7C76.9,64.9,63,79,60.6,96.8H40.9C43.5,68.2,66,45.4,94.6,42.5z
	 M94.6,162c-28.6-3-51.1-25.7-53.7-54.3h19.7c2.4,17.8,16.3,31.9,34,34.6V162z M94.1,129.5c-1.3-2-2.9-4.4-4.8-7
	c5.3-1.7,10.4-4.2,14.9-7.6c-2.6-3.5-4.8-7.3-6.7-11.2l6.7-3c1.5,3.1,3.3,5.9,5.5,8.6c2.1-2.7,3.7-5.6,5-8.7l6.9,2.7
	c-1.7,4.1-3.9,7.9-6.7,11.3c4,3.1,8.6,5.4,13.4,6.7c-1.9,3.1-3.4,5.6-4.6,7.6c-5.4-1.8-10.3-4.7-14.5-8.6
	C104.7,124.3,99.6,127.4,94.1,129.5z M105.5,162.2L105.5,162.2v-19.6c18.3-2.2,32.9-16.5,35.4-34.8h19.7
	C157.9,136.8,134.7,159.8,105.5,162.2z M140.9,96.8c-2.5-18.3-17-32.6-35.4-34.8V42.4c29.1,2.3,52.4,25.3,55,54.4L140.9,96.8z"/>
</svg>
