<?xml version="1.0" encoding="utf-8"?>
<!-- Generator: Adobe Illustrator 28.3.0, SVG Export Plug-In . SVG Version: 6.00 Build 0)  -->
<svg version="1.1" id="图层_1" xmlns="http://www.w3.org/2000/svg" xmlns:xlink="http://www.w3.org/1999/xlink" x="0px" y="0px"
	 viewBox="0 0 200 200" style="enable-background:new 0 0 200 200;" xml:space="preserve">
<path d="M174,94.1l0.1-0.2l-0.1-0.1c-3.1-38.1-35.1-68.1-74-68.1c-16.7,0-32.1,5.5-44.6,14.9c-0.1,0-0.2,0-0.2,0l0,0.2
	c-17.9,13.6-29.5,35-29.5,59.2c0,40.9,33.3,74.2,74.2,74.2c40.9,0,74.2-33.3,74.2-74.2C174.2,98,174.2,96.1,174,94.1L174,94.1z
	 M165.3,92.2c-4.1,6.2-18.2,24-45.6,24.9l9.9-17.1l0,0c10.7-18.5,10.3-35.5,8-46.6c-0.6-3.1-1.5-6.1-2.5-9
	C151.4,54.7,162.9,72.1,165.3,92.2L165.3,92.2z M90.1,117.2L80.1,100l9.9-17.2h19.9l9.9,17.2l-9.9,17.2H90.1z M123.1,38.4
	c1.5,2.6,4.7,8.7,6.3,17c2.4,12.3,0.8,24.3-4.8,36L116,76.5l0,0C105,56,89.1,47.4,77.8,43.7c-2.7-0.9-5.4-1.5-8.1-2.1
	c9.1-4.8,19.4-7.5,30.4-7.5C107.9,34.2,115.7,35.6,123.1,38.4L123.1,38.4z M58.5,49c7.5,0,30.7,2.1,46.5,25.4H85.2l0,0
	c-21.9,0.7-36.3,10.1-44.6,18.2c-2.3,2.2-4.4,4.6-6.4,7.1C34.3,79.2,43.7,61,58.5,49z M35.5,113.1c2.6-5.1,15.1-26.7,44.6-29.9
	L70.4,100l0,0C60.1,117.8,60,134.2,62,145.1c0.6,3.5,1.6,7,2.8,10.4C49.9,146.1,39.1,130.9,35.5,113.1L35.5,113.1z M76.8,161.6
	c-1.6-2.6-14.8-25.5-1.4-52.9l9.8,17h0.1c10.5,18.6,25.1,26.9,35.8,30.6c2.8,1,5.8,1.8,8.7,2.4c-9,4.6-19.1,7.2-29.8,7.2
	C92.1,165.8,84.2,164.4,76.8,161.6L76.8,161.6z M141,151.5c-3.2-0.1-9.8-0.6-17.4-3.3c-11.8-4.2-21.3-11.8-28.4-22.6h19.6l0.1-0.1
	c0.9,0,1.8,0,2.6,0c19.6,0,33.3-7.6,41.7-14.4c2.3-1.8,4.4-3.8,6.4-5.9C164.1,123.9,154.8,140.4,141,151.5L141,151.5z"/>
</svg>
