<?xml version="1.0" encoding="utf-8"?>
<!-- Generator: Adobe Illustrator 28.3.0, SVG Export Plug-In . SVG Version: 6.00 Build 0)  -->
<svg version="1.1" id="图层_1" xmlns="http://www.w3.org/2000/svg" xmlns:xlink="http://www.w3.org/1999/xlink" x="0px" y="0px"
	 viewBox="0 0 200 200" style="enable-background:new 0 0 200 200;" xml:space="preserve">
<path d="M100,26.6c-40.5,0-73.4,32.9-73.4,73.4s32.9,73.4,73.4,73.4s73.4-32.9,73.4-73.4S140.5,26.6,100,26.6z M32.9,85.1
	c0-11.5,9.3-20.8,20.8-20.8c11.5,0,20.8,9.3,20.8,20.8c0,11.5-9.3,20.8-20.8,20.8C42.2,105.9,32.9,96.6,32.9,85.1z M71.2,159.8
	c-11.5,0-20.8-9.3-20.8-20.8c0-11.5,9.3-20.8,20.8-20.8c11.5,0,20.8,9.3,20.8,20.8C92,150.5,82.7,159.8,71.2,159.8z M99.3,72.3
	c-11.5,0-20.8-9.3-20.8-20.8s9.3-20.8,20.8-20.8c11.5,0,20.8,9.3,20.8,20.8S110.8,72.3,99.3,72.3z M128.1,159.8
	c-11.5,0-20.8-9.3-20.8-20.8c0-11.5,9.3-20.8,20.8-20.8c11.5,0,20.8,9.3,20.8,20.8C148.9,150.5,139.6,159.8,128.1,159.8z
	 M146.2,106.5c-11.5,0-20.8-9.3-20.8-20.8c0-11.5,9.3-20.8,20.8-20.8c11.5,0,20.8,9.3,20.8,20.8C167,97.2,157.7,106.5,146.2,106.5z"
	/>
</svg>
