<?xml version="1.0" encoding="utf-8"?>
<!-- Generator: Adobe Illustrator 28.3.0, SVG Export Plug-In . SVG Version: 6.00 Build 0)  -->
<svg version="1.1" id="图层_1" xmlns="http://www.w3.org/2000/svg" xmlns:xlink="http://www.w3.org/1999/xlink" x="0px" y="0px"
	 viewBox="0 0 200 200" style="enable-background:new 0 0 200 200;" xml:space="preserve">
<path d="M99.7,25.7c-40.6,0-74.2,33.7-74.2,74.2s33.7,74.3,74.2,74.3s74.2-33.7,74.2-74.3S140.2,25.7,99.7,25.7z M105.2,162.9v-18.3
	c0-3.4-2.1-5.5-5.5-5.5s-5.5,2.7-5.5,5.5v18.3c-30.6-2.6-54.9-26.9-57.5-57.5H55c2.8,0,5.5-2.1,5.5-5.5c0-3.4-2.7-5.5-5.5-5.5H36.7
	C39.3,63.8,63.5,39.6,94.2,37v17.6c0,3.4,2.8,5.5,5.5,5.5s5.5-2.1,5.5-4.8V37c30.6,2.6,54.9,26.9,57.5,57.5h-21.7
	c-3.4,0-5.5,2.1-5.5,5.5c0,3.4,2.8,5.5,5.5,5.5h21.7C160,136.1,135.8,160.3,105.2,162.9z"/>
</svg>
